<?xml version="1.0" standalone="no"?>
<!DOCTYPE svg PUBLIC "-//W3C//DTD SVG 20010904//EN"
 "http://www.w3.org/TR/2001/REC-SVG-20010904/DTD/svg10.dtd">
<svg version="1.0" xmlns="http://www.w3.org/2000/svg"
 width="648.000000pt" height="648.000000pt" viewBox="0 0 648.000000 648.000000"
 preserveAspectRatio="xMidYMid meet">
<metadata>
Created by potrace 1.11, written by Peter Selinger 2001-2013
</metadata>
<g transform="translate(0.000000,648.000000) scale(0.100000,-0.100000)"
fill="#000000" stroke="none">
<path d="M3216 6462 c-2 -4 -24 -18 -48 -30 -24 -13 -56 -31 -73 -41 -16 -10
-46 -27 -65 -38 -42 -24 -223 -129 -815 -471 -242 -140 -456 -263 -475 -273
-19 -11 -57 -33 -85 -50 -27 -16 -57 -32 -65 -36 -8 -3 -22 -11 -30 -18 -8 -7
-40 -26 -70 -42 -61 -34 -330 -188 -370 -213 -8 -5 -73 -42 -145 -83 -71 -41
-220 -127 -330 -190 l-200 -116 -3 -1619 -2 -1620 102 -58 c57 -33 111 -63
120 -69 10 -5 95 -55 190 -110 95 -55 181 -104 190 -110 9 -5 29 -17 45 -26
51 -28 246 -140 356 -205 59 -35 110 -64 112 -64 3 0 23 -11 45 -25 45 -29
914 -531 1000 -578 30 -16 66 -38 80 -47 22 -15 257 -151 328 -190 15 -8 74
-42 131 -74 l103 -59 36 21 c20 12 133 77 250 144 117 68 227 131 245 141 222
129 1032 596 1307 755 195 112 391 226 435 252 44 25 180 104 303 174 l222
128 0 1618 0 1618 -107 63 c-60 35 -110 64 -113 64 -3 0 -16 8 -30 17 -22 14
-295 172 -390 225 -19 11 -192 111 -385 223 -192 112 -366 212 -385 223 -19
11 -109 62 -200 115 -91 52 -208 120 -260 150 -52 30 -110 63 -127 73 -18 11
-48 27 -65 37 -18 11 -132 76 -253 147 -121 70 -240 139 -265 153 -25 13 -82
47 -128 73 -81 48 -106 57 -116 41z"/>
</g>
</svg>
