<svg id="Layer_1" data-name="Layer 1" xmlns="http://www.w3.org/2000/svg" viewBox="0 0 348.02 155.24"><title>logo_codePin</title><polygon points="217.58 41.12 217.58 114.12 280.8 150.62 344.02 114.12 344.02 41.12 280.8 4.62 217.58 41.12" fill="#fff" stroke="#00e" stroke-miterlimit="10" stroke-width="8"/><path d="M237.32,66.12H246v3.77a12,12,0,0,1,10.17-4.72c8.29,0,14.15,5.82,14.15,14.74,0,9.18-6.05,15-14,15-4.37,0-7.84-1.52-10.09-4.41v14.64h-8.88Zm16.34,5.45c-4.83,0-7.46,2.94-7.46,8.66,0,5.29,2.83,8.23,7.65,8.23,4.5,0,7.4-3,7.4-8.23C261.25,74.56,258.55,71.57,253.66,71.57Z" fill="#231f20"/><path d="M276.75,56.26h9.13V63h-9.13Zm0,9.86h9.13V94h-9.13Z" fill="#231f20"/><path d="M294.05,66.12H303v3.3a13.75,13.75,0,0,1,10.35-4c7.53,0,11.26,3.2,11.26,9.6V94h-9.13V77.13c0-3.78-1.35-5.56-5.28-5.56-4.24,0-7,2.2-7,5.88V94h-9.13Z" fill="#231f20"/><path d="M40.7,85.2h4.93a15,15,0,0,1-6.4,11.46q-5.77,4.14-15.43,4.13-11,0-17.41-6.22T0,77.5Q0,66.75,6.44,60.59T24,54.44q9.29,0,15,3.81a12.76,12.76,0,0,1,6.14,10.2H40.18a10.35,10.35,0,0,0-5-7.63Q30.85,58,24,58q-8.88,0-13.81,5.1T5.2,77.44q0,9.28,5,14.54t13.91,5.26q7.23,0,11.64-3.2A11.75,11.75,0,0,0,40.7,85.2Z" fill="#231f20"/><path d="M52.91,77.62q0-10.7,6.76-16.94t18.27-6.24q11.55,0,18.32,6.24T103,77.62q0,10.69-6.78,16.93t-18.32,6.24q-11.52,0-18.27-6.24T52.91,77.62Zm5.2,0q0,9,5.35,14.29t14.48,5.27q9.16,0,14.55-5.26t5.39-14.3q0-9.09-5.39-14.37T77.94,58q-9,0-14.43,5.34T58.11,77.62Z" fill="#231f20"/><path d="M125.69,55.58h3.71a66.44,66.44,0,0,1,10.14.56A20.39,20.39,0,0,1,145.37,58a17.57,17.57,0,0,1,7.7,7.58,25.17,25.17,0,0,1,2.66,12,25.2,25.2,0,0,1-2.9,12.6,17.62,17.62,0,0,1-8.58,7.59,21.67,21.67,0,0,1-5.83,1.45,92.66,92.66,0,0,1-10.54.43h-15v-44ZM117.85,96h10.59a77.36,77.36,0,0,0,9.06-.38,16,16,0,0,0,4.75-1.27,13.06,13.06,0,0,0,6.2-6.1,23.84,23.84,0,0,0,2-10.59,23.66,23.66,0,0,0-2-10.29,13.2,13.2,0,0,0-5.86-6.17,15.33,15.33,0,0,0-4.92-1.52,73.91,73.91,0,0,0-9.86-.45h-10Z" fill="#231f20"/><path d="M165.83,99.57v-44h35.79v3.61H170.84v16H199v3.49H170.84V96h31.71v3.61Z" fill="#231f20"/></svg>